<svg xmlns="http://www.w3.org/2000/svg" xmlns:xlink="http://www.w3.org/1999/xlink" width="252" zoomAndPan="magnify" viewBox="0 0 189 95.999999" height="128" preserveAspectRatio="xMidYMid meet" version="1.0"><defs><g/><clipPath id="8e08f8220b"><path d="M 109.144531 30 L 144.394531 30 L 144.394531 54.570312 L 109.144531 54.570312 Z M 109.144531 30 " clip-rule="nonzero"/></clipPath><clipPath id="d4344adc57"><path d="M 109.144531 13.320312 L 144.394531 13.320312 L 144.394531 37 L 109.144531 37 Z M 109.144531 13.320312 " clip-rule="nonzero"/></clipPath><clipPath id="9025e9380d"><path d="M 83.304688 0 L 105.054688 0 L 105.054688 66 L 83.304688 66 Z M 83.304688 0 " clip-rule="nonzero"/></clipPath><clipPath id="22a9d61434"><path d="M 44.628906 30 L 79.550781 30 L 79.550781 54.570312 L 44.628906 54.570312 Z M 44.628906 30 " clip-rule="nonzero"/></clipPath><clipPath id="09df3f6f57"><path d="M 44.628906 13.320312 L 79.550781 13.320312 L 79.550781 37 L 44.628906 37 Z M 44.628906 13.320312 " clip-rule="nonzero"/></clipPath></defs><g clip-path="url(#8e08f8220b)"><path fill="#000000" d="M 142.894531 38.886719 L 112.386719 53.925781 C 111.082031 54.570312 109.335938 53.496094 109.335938 51.992188 L 109.335938 48.125 C 109.335938 47.265625 109.773438 46.621094 110.644531 46.191406 L 141.152344 31.152344 C 142.675781 30.507812 144.203125 31.582031 144.203125 33.085938 L 144.203125 36.953125 C 144.203125 37.8125 143.765625 38.457031 142.894531 38.886719 Z M 142.894531 38.886719 " fill-opacity="1" fill-rule="nonzero"/></g><g clip-path="url(#d4344adc57)"><path fill="#000000" d="M 141.152344 36.738281 L 110.644531 21.699219 C 109.773438 21.269531 109.335938 20.625 109.335938 19.765625 L 109.335938 15.898438 C 109.335938 14.394531 111.082031 13.320312 112.386719 13.964844 L 142.894531 29.003906 C 143.550781 29.433594 144.203125 30.078125 144.203125 30.9375 L 144.203125 34.804688 C 144.203125 36.308594 142.460938 37.382812 141.152344 36.738281 Z M 141.152344 36.738281 " fill-opacity="1" fill-rule="nonzero"/></g><g clip-path="url(#9025e9380d)"><path fill="#38b6ff" d="M 95.652344 32.21875 L 100.761719 30.511719 L 83.304688 66.199219 L 92.4375 35.699219 L 85.714844 37.773438 L 105.324219 0.0351562 Z M 95.652344 32.21875 " fill-opacity="1" fill-rule="nonzero"/></g><g clip-path="url(#22a9d61434)"><path fill="#000000" d="M 45.800781 38.886719 L 76.304688 53.925781 C 77.613281 54.570312 79.355469 53.496094 79.355469 51.992188 L 79.355469 48.125 C 79.355469 47.265625 78.921875 46.621094 78.050781 46.191406 L 47.542969 31.152344 C 46.015625 30.507812 44.492188 31.582031 44.492188 33.085938 L 44.492188 36.953125 C 44.492188 37.8125 44.925781 38.457031 45.800781 38.886719 Z M 45.800781 38.886719 " fill-opacity="1" fill-rule="nonzero"/></g><g clip-path="url(#09df3f6f57)"><path fill="#000000" d="M 47.542969 36.738281 L 78.050781 21.699219 C 78.921875 21.269531 79.355469 20.625 79.355469 19.765625 L 79.355469 15.898438 C 79.355469 14.394531 77.613281 13.320312 76.304688 13.964844 L 45.800781 29.003906 C 45.144531 29.433594 44.492188 30.078125 44.492188 30.9375 L 44.492188 34.804688 C 44.492188 36.308594 46.234375 37.382812 47.542969 36.738281 Z M 47.542969 36.738281 " fill-opacity="1" fill-rule="nonzero"/></g><g fill="#000000" fill-opacity="1"><g transform="translate(8.202962, 81.060874)"><g><path d="M 11.40625 -5.824219 C 11.40625 -4.683594 11.011719 -3.679688 10.214844 -2.859375 C 9.421875 -2.011719 8.441406 -1.589844 7.304688 -1.589844 C 6.167969 -1.589844 5.1875 -2.011719 4.394531 -2.859375 C 3.597656 -3.679688 3.203125 -4.660156 3.203125 -5.824219 C 3.203125 -6.960938 3.597656 -7.941406 4.394531 -8.789062 C 5.1875 -9.632812 6.167969 -10.058594 7.304688 -10.058594 C 8.441406 -10.058594 9.421875 -9.632812 10.214844 -8.789062 C 11.011719 -7.941406 11.40625 -6.933594 11.40625 -5.824219 Z M 3.148438 1.589844 L 1.242188 1.589844 C 1.457031 2.832031 2.011719 3.917969 2.964844 4.84375 C 4.128906 6.035156 5.558594 6.617188 7.226562 6.617188 C 8.867188 6.617188 10.296875 6.035156 11.488281 4.84375 C 12.652344 3.679688 13.261719 2.25 13.261719 0.582031 L 13.261719 -11.644531 L 11.40625 -11.644531 L 11.40625 -9.6875 C 11.300781 -9.792969 11.195312 -9.925781 11.089844 -10.058594 C 9.925781 -11.273438 8.574219 -11.910156 7.039062 -11.910156 C 5.398438 -11.910156 4.050781 -11.273438 2.9375 -10.058594 C 1.878906 -8.839844 1.351562 -7.4375 1.351562 -5.824219 C 1.351562 -4.183594 1.878906 -2.777344 2.9375 -1.589844 C 4.050781 -0.34375 5.398438 0.265625 7.039062 0.265625 C 8.628906 0.265625 9.976562 -0.34375 11.089844 -1.589844 C 11.195312 -1.695312 11.300781 -1.828125 11.40625 -1.933594 L 11.40625 0.582031 C 11.40625 1.746094 10.984375 2.726562 10.164062 3.546875 C 9.34375 4.367188 8.363281 4.765625 7.226562 4.765625 C 6.0625 4.765625 5.082031 4.367188 4.261719 3.546875 C 3.679688 2.964844 3.308594 2.328125 3.148438 1.589844 Z M 3.148438 1.589844 "/></g></g></g><g fill="#000000" fill-opacity="1"><g transform="translate(23.444431, 81.060874)"><g><path d="M 11.511719 -5.875 C 11.511719 -4.710938 11.089844 -3.730469 10.269531 -2.910156 C 9.421875 -2.066406 8.441406 -1.667969 7.277344 -1.667969 C 6.113281 -1.667969 5.109375 -2.066406 4.289062 -2.910156 C 3.441406 -3.730469 3.042969 -4.710938 3.042969 -5.875 C 3.042969 -7.039062 3.441406 -8.019531 4.289062 -8.867188 C 5.109375 -9.6875 6.113281 -10.109375 7.277344 -10.109375 C 8.441406 -10.109375 9.421875 -9.6875 10.269531 -8.867188 C 11.089844 -8.019531 11.511719 -7.039062 11.511719 -5.875 Z M 13.367188 -5.875 C 13.367188 -7.542969 12.757812 -8.972656 11.566406 -10.164062 C 10.375 -11.355469 8.945312 -11.964844 7.277344 -11.964844 C 5.585938 -11.964844 4.15625 -11.355469 2.964844 -10.164062 C 1.773438 -8.972656 1.191406 -7.542969 1.191406 -5.875 C 1.191406 -4.183594 1.773438 -2.753906 2.964844 -1.589844 C 4.15625 -0.398438 5.609375 0.183594 7.277344 0.183594 C 8.917969 0.183594 10.375 -0.398438 11.566406 -1.589844 C 12.757812 -2.753906 13.367188 -4.183594 13.367188 -5.875 Z M 13.367188 -5.875 "/></g></g></g><g fill="#000000" fill-opacity="1"><g transform="translate(37.997916, 81.060874)"><g><path d="M 3.835938 0 L 3.835938 -19.851562 L 1.984375 -19.851562 L 1.984375 0 Z M 3.835938 0 "/></g></g></g><g fill="#000000" fill-opacity="1"><g transform="translate(43.819308, 81.060874)"><g><path d="M 11.25 -5.824219 C 11.25 -4.683594 10.851562 -3.679688 10.058594 -2.859375 C 9.261719 -2.011719 8.285156 -1.589844 7.144531 -1.589844 C 5.980469 -1.589844 5.003906 -2.011719 4.207031 -2.859375 C 3.414062 -3.679688 3.042969 -4.683594 3.042969 -5.824219 C 3.042969 -6.933594 3.414062 -7.941406 4.207031 -8.789062 C 5.003906 -9.632812 5.980469 -10.058594 7.144531 -10.058594 C 8.285156 -10.058594 9.261719 -9.632812 10.058594 -8.789062 C 10.851562 -7.941406 11.25 -6.933594 11.25 -5.824219 Z M 13.101562 0 L 13.101562 -19.851562 L 11.25 -19.851562 L 11.25 -9.632812 C 11.144531 -9.792969 11.011719 -9.925781 10.90625 -10.058594 C 9.792969 -11.273438 8.441406 -11.910156 6.855469 -11.910156 C 5.242188 -11.910156 3.890625 -11.273438 2.777344 -10.058594 C 1.71875 -8.839844 1.191406 -7.4375 1.191406 -5.824219 C 1.191406 -4.183594 1.71875 -2.777344 2.777344 -1.589844 C 3.890625 -0.34375 5.242188 0.265625 6.855469 0.265625 C 8.441406 0.265625 9.792969 -0.34375 10.90625 -1.589844 C 11.011719 -1.695312 11.144531 -1.828125 11.25 -1.984375 L 11.25 0 Z M 13.101562 0 "/></g></g></g><g fill="#000000" fill-opacity="1"><g transform="translate(58.902013, 81.060874)"><g><path d="M 13.367188 -6.085938 C 13.367188 -7.675781 12.730469 -9.050781 11.511719 -10.242188 C 10.324219 -11.382812 8.894531 -11.964844 7.277344 -11.964844 C 5.585938 -11.964844 4.15625 -11.355469 2.964844 -10.164062 C 1.773438 -8.972656 1.191406 -7.542969 1.191406 -5.875 C 1.191406 -4.183594 1.773438 -2.753906 2.964844 -1.589844 C 3.519531 -1.03125 4.15625 -0.609375 4.898438 -0.292969 C 5.636719 0.0273438 6.511719 0.183594 7.542969 0.183594 C 8.574219 0.183594 9.582031 -0.132812 10.585938 -0.765625 C 11.59375 -1.402344 12.332031 -2.300781 12.835938 -3.414062 L 10.71875 -3.414062 C 10.296875 -2.859375 9.792969 -2.433594 9.183594 -2.117188 C 8.574219 -1.800781 7.941406 -1.667969 7.277344 -1.667969 C 6.273438 -1.667969 5.371094 -1.984375 4.578125 -2.648438 C 3.785156 -3.28125 3.28125 -4.101562 3.125 -5.109375 L 13.367188 -5.109375 Z M 11.40625 -6.695312 L 3.148438 -6.695312 C 3.253906 -7.171875 3.441406 -7.621094 3.707031 -8.046875 C 4.550781 -9.421875 5.742188 -10.109375 7.277344 -10.109375 C 8.257812 -10.109375 9.132812 -9.792969 9.898438 -9.15625 C 10.691406 -8.496094 11.167969 -7.675781 11.40625 -6.695312 Z M 11.40625 -6.695312 "/></g></g></g><g fill="#000000" fill-opacity="1"><g transform="translate(73.323193, 81.060874)"><g><path d="M 10.03125 0 L 11.882812 0 L 11.882812 -7.277344 C 11.882812 -8.628906 11.511719 -9.714844 10.824219 -10.535156 C 10.453125 -10.957031 10.03125 -11.273438 9.527344 -11.511719 C 9 -11.75 8.335938 -11.882812 7.515625 -11.882812 C 6.667969 -11.882812 5.957031 -11.644531 5.320312 -11.222656 C 4.710938 -10.824219 4.207031 -10.296875 3.835938 -9.632812 L 3.835938 -11.644531 L 1.984375 -11.644531 L 1.984375 0 L 3.835938 0 L 3.835938 -4.871094 C 3.835938 -6.351562 4.101562 -7.515625 4.660156 -8.390625 C 4.976562 -8.867188 5.371094 -9.261719 5.875 -9.582031 C 6.351562 -9.871094 7.015625 -10.03125 7.808594 -10.03125 C 8.601562 -10.03125 9.15625 -9.738281 9.5 -9.210938 C 9.847656 -8.679688 10.03125 -8.019531 10.03125 -7.277344 Z M 10.03125 0 "/></g></g></g><g fill="#000000" fill-opacity="1"><g transform="translate(86.791779, 81.060874)"><g/></g></g><g fill="#000000" fill-opacity="1"><g transform="translate(93.936222, 81.060874)"><g><path d="M 3.652344 -1.640625 C 3.203125 -1.957031 2.859375 -2.488281 2.671875 -3.253906 L 0.714844 -3.253906 C 1.113281 -0.847656 2.648438 0.34375 5.347656 0.34375 C 5.980469 0.34375 6.5625 0.292969 7.121094 0.132812 C 7.675781 -0.0273438 8.152344 -0.238281 8.601562 -0.53125 C 9.5 -1.136719 9.953125 -2.066406 9.953125 -3.308594 C 9.953125 -4.578125 9.371094 -5.480469 8.152344 -6.0625 C 7.648438 -6.300781 7.09375 -6.484375 6.484375 -6.617188 C 5.902344 -6.75 5.347656 -6.90625 4.84375 -7.066406 C 4.3125 -7.226562 3.890625 -7.4375 3.546875 -7.675781 C 3.203125 -7.914062 3.015625 -8.285156 3.015625 -8.8125 C 3.015625 -9.34375 3.230469 -9.738281 3.652344 -9.976562 C 4.074219 -10.242188 4.578125 -10.375 5.132812 -10.375 C 5.71875 -10.375 6.21875 -10.242188 6.617188 -10.03125 C 7.015625 -9.820312 7.332031 -9.394531 7.515625 -8.761719 L 9.5 -8.761719 C 9.261719 -9.925781 8.761719 -10.746094 8.019531 -11.195312 C 7.253906 -11.671875 6.324219 -11.910156 5.1875 -11.910156 C 4.074219 -11.910156 3.097656 -11.59375 2.277344 -11.011719 C 1.480469 -10.402344 1.058594 -9.527344 1.058594 -8.363281 C 1.058594 -7.808594 1.21875 -7.304688 1.507812 -6.882812 C 1.828125 -6.429688 2.277344 -6.085938 2.859375 -5.824219 C 3.386719 -5.585938 3.945312 -5.398438 4.527344 -5.242188 C 5.109375 -5.109375 5.664062 -4.949219 6.195312 -4.789062 C 7.382812 -4.394531 7.992188 -3.8125 7.992188 -3.070312 C 7.992188 -1.800781 7.144531 -1.191406 5.453125 -1.191406 C 4.738281 -1.191406 4.128906 -1.324219 3.652344 -1.640625 Z M 3.652344 -1.640625 "/></g></g></g><g fill="#000000" fill-opacity="1"><g transform="translate(104.573493, 81.060874)"><g><path d="M 3.46875 6.617188 L 11.511719 -11.644531 L 9.449219 -11.644531 L 6.113281 -3.835938 L 2.382812 -11.644531 L 0.265625 -11.644531 L 5.132812 -1.90625 L 1.21875 6.617188 Z M 3.46875 6.617188 "/></g></g></g><g fill="#000000" fill-opacity="1"><g transform="translate(115.819373, 81.060874)"><g><path d="M 3.652344 -1.640625 C 3.203125 -1.957031 2.859375 -2.488281 2.671875 -3.253906 L 0.714844 -3.253906 C 1.113281 -0.847656 2.648438 0.34375 5.347656 0.34375 C 5.980469 0.34375 6.5625 0.292969 7.121094 0.132812 C 7.675781 -0.0273438 8.152344 -0.238281 8.601562 -0.53125 C 9.5 -1.136719 9.953125 -2.066406 9.953125 -3.308594 C 9.953125 -4.578125 9.371094 -5.480469 8.152344 -6.0625 C 7.648438 -6.300781 7.09375 -6.484375 6.484375 -6.617188 C 5.902344 -6.75 5.347656 -6.90625 4.84375 -7.066406 C 4.3125 -7.226562 3.890625 -7.4375 3.546875 -7.675781 C 3.203125 -7.914062 3.015625 -8.285156 3.015625 -8.8125 C 3.015625 -9.34375 3.230469 -9.738281 3.652344 -9.976562 C 4.074219 -10.242188 4.578125 -10.375 5.132812 -10.375 C 5.71875 -10.375 6.21875 -10.242188 6.617188 -10.03125 C 7.015625 -9.820312 7.332031 -9.394531 7.515625 -8.761719 L 9.5 -8.761719 C 9.261719 -9.925781 8.761719 -10.746094 8.019531 -11.195312 C 7.253906 -11.671875 6.324219 -11.910156 5.1875 -11.910156 C 4.074219 -11.910156 3.097656 -11.59375 2.277344 -11.011719 C 1.480469 -10.402344 1.058594 -9.527344 1.058594 -8.363281 C 1.058594 -7.808594 1.21875 -7.304688 1.507812 -6.882812 C 1.828125 -6.429688 2.277344 -6.085938 2.859375 -5.824219 C 3.386719 -5.585938 3.945312 -5.398438 4.527344 -5.242188 C 5.109375 -5.109375 5.664062 -4.949219 6.195312 -4.789062 C 7.382812 -4.394531 7.992188 -3.8125 7.992188 -3.070312 C 7.992188 -1.800781 7.144531 -1.191406 5.453125 -1.191406 C 4.738281 -1.191406 4.128906 -1.324219 3.652344 -1.640625 Z M 3.652344 -1.640625 "/></g></g></g><g fill="#000000" fill-opacity="1"><g transform="translate(126.456644, 81.060874)"><g><path d="M 0.53125 -9.925781 L 3.441406 -9.925781 L 3.441406 0 L 5.292969 0 L 5.292969 -9.925781 L 8.179688 -9.925781 L 8.179688 -11.644531 L 5.292969 -11.644531 L 5.292969 -16.171875 L 3.441406 -16.171875 L 3.441406 -11.644531 L 0.53125 -11.644531 Z M 0.53125 -9.925781 "/></g></g></g><g fill="#000000" fill-opacity="1"><g transform="translate(135.162279, 81.060874)"><g><path d="M 13.367188 -6.085938 C 13.367188 -7.675781 12.730469 -9.050781 11.511719 -10.242188 C 10.324219 -11.382812 8.894531 -11.964844 7.277344 -11.964844 C 5.585938 -11.964844 4.15625 -11.355469 2.964844 -10.164062 C 1.773438 -8.972656 1.191406 -7.542969 1.191406 -5.875 C 1.191406 -4.183594 1.773438 -2.753906 2.964844 -1.589844 C 3.519531 -1.03125 4.15625 -0.609375 4.898438 -0.292969 C 5.636719 0.0273438 6.511719 0.183594 7.542969 0.183594 C 8.574219 0.183594 9.582031 -0.132812 10.585938 -0.765625 C 11.59375 -1.402344 12.332031 -2.300781 12.835938 -3.414062 L 10.71875 -3.414062 C 10.296875 -2.859375 9.792969 -2.433594 9.183594 -2.117188 C 8.574219 -1.800781 7.941406 -1.667969 7.277344 -1.667969 C 6.273438 -1.667969 5.371094 -1.984375 4.578125 -2.648438 C 3.785156 -3.28125 3.28125 -4.101562 3.125 -5.109375 L 13.367188 -5.109375 Z M 11.40625 -6.695312 L 3.148438 -6.695312 C 3.253906 -7.171875 3.441406 -7.621094 3.707031 -8.046875 C 4.550781 -9.421875 5.742188 -10.109375 7.277344 -10.109375 C 8.257812 -10.109375 9.132812 -9.792969 9.898438 -9.15625 C 10.691406 -8.496094 11.167969 -7.675781 11.40625 -6.695312 Z M 11.40625 -6.695312 "/></g></g></g><g fill="#000000" fill-opacity="1"><g transform="translate(149.583459, 81.060874)"><g><path d="M 16.753906 -0.0546875 L 18.605469 -0.0546875 L 18.605469 -7.332031 C 18.605469 -8.628906 18.261719 -9.714844 17.628906 -10.558594 C 17.308594 -10.984375 16.886719 -11.300781 16.410156 -11.566406 C 15.90625 -11.832031 15.246094 -11.964844 14.453125 -11.964844 C 13.628906 -11.964844 12.917969 -11.726562 12.308594 -11.300781 C 11.75 -10.878906 11.300781 -10.375 10.929688 -9.738281 C 10.796875 -10.03125 10.640625 -10.296875 10.453125 -10.558594 C 10.136719 -10.984375 9.714844 -11.300781 9.238281 -11.566406 C 8.734375 -11.832031 8.074219 -11.964844 7.277344 -11.964844 C 6.457031 -11.964844 5.742188 -11.726562 5.132812 -11.300781 C 4.605469 -10.90625 4.183594 -10.429688 3.835938 -9.820312 L 3.835938 -11.699219 L 1.984375 -11.699219 L 1.984375 -0.0546875 L 3.835938 -0.0546875 L 3.835938 -6.007812 C 3.917969 -6.933594 4.15625 -7.753906 4.550781 -8.417969 C 4.816406 -8.894531 5.214844 -9.316406 5.691406 -9.632812 C 6.167969 -9.953125 6.667969 -10.109375 7.226562 -10.109375 C 7.753906 -10.109375 8.179688 -10.003906 8.441406 -9.847656 C 9.183594 -9.371094 9.582031 -8.523438 9.582031 -7.332031 L 9.582031 -0.0546875 L 11.433594 -0.0546875 L 11.433594 -7.332031 C 11.433594 -7.464844 11.40625 -7.621094 11.40625 -7.753906 C 11.488281 -7.992188 11.59375 -8.203125 11.726562 -8.417969 C 11.988281 -8.894531 12.386719 -9.316406 12.863281 -9.632812 C 13.339844 -9.953125 13.84375 -10.109375 14.398438 -10.109375 C 14.925781 -10.109375 15.351562 -10.003906 15.617188 -9.847656 C 16.355469 -9.371094 16.753906 -8.523438 16.753906 -7.332031 Z M 16.753906 -0.0546875 "/></g></g></g><g fill="#000000" fill-opacity="1"><g transform="translate(169.773113, 81.060874)"><g><path d="M 3.652344 -1.640625 C 3.203125 -1.957031 2.859375 -2.488281 2.671875 -3.253906 L 0.714844 -3.253906 C 1.113281 -0.847656 2.648438 0.34375 5.347656 0.34375 C 5.980469 0.34375 6.5625 0.292969 7.121094 0.132812 C 7.675781 -0.0273438 8.152344 -0.238281 8.601562 -0.53125 C 9.5 -1.136719 9.953125 -2.066406 9.953125 -3.308594 C 9.953125 -4.578125 9.371094 -5.480469 8.152344 -6.0625 C 7.648438 -6.300781 7.09375 -6.484375 6.484375 -6.617188 C 5.902344 -6.75 5.347656 -6.90625 4.84375 -7.066406 C 4.3125 -7.226562 3.890625 -7.4375 3.546875 -7.675781 C 3.203125 -7.914062 3.015625 -8.285156 3.015625 -8.8125 C 3.015625 -9.34375 3.230469 -9.738281 3.652344 -9.976562 C 4.074219 -10.242188 4.578125 -10.375 5.132812 -10.375 C 5.71875 -10.375 6.21875 -10.242188 6.617188 -10.03125 C 7.015625 -9.820312 7.332031 -9.394531 7.515625 -8.761719 L 9.5 -8.761719 C 9.261719 -9.925781 8.761719 -10.746094 8.019531 -11.195312 C 7.253906 -11.671875 6.324219 -11.910156 5.1875 -11.910156 C 4.074219 -11.910156 3.097656 -11.59375 2.277344 -11.011719 C 1.480469 -10.402344 1.058594 -9.527344 1.058594 -8.363281 C 1.058594 -7.808594 1.21875 -7.304688 1.507812 -6.882812 C 1.828125 -6.429688 2.277344 -6.085938 2.859375 -5.824219 C 3.386719 -5.585938 3.945312 -5.398438 4.527344 -5.242188 C 5.109375 -5.109375 5.664062 -4.949219 6.195312 -4.789062 C 7.382812 -4.394531 7.992188 -3.8125 7.992188 -3.070312 C 7.992188 -1.800781 7.144531 -1.191406 5.453125 -1.191406 C 4.738281 -1.191406 4.128906 -1.324219 3.652344 -1.640625 Z M 3.652344 -1.640625 "/></g></g></g></svg>