<svg xmlns="http://www.w3.org/2000/svg" xmlns:xlink="http://www.w3.org/1999/xlink" width="133" zoomAndPan="magnify" viewBox="0 0 99.75 66.75" height="89" preserveAspectRatio="xMidYMid meet" version="1.0"><defs><clipPath id="5ccb3a9577"><path d="M 64.339844 30 L 99.4375 30 L 99.4375 54 L 64.339844 54 Z M 64.339844 30 " clip-rule="nonzero"/></clipPath><clipPath id="253ed9ee10"><path d="M 64.339844 13.269531 L 99.4375 13.269531 L 99.4375 37 L 64.339844 37 Z M 64.339844 13.269531 " clip-rule="nonzero"/></clipPath><clipPath id="2737752b95"><path d="M 38.597656 0 L 60.265625 0 L 60.265625 65.753906 L 38.597656 65.753906 Z M 38.597656 0 " clip-rule="nonzero"/></clipPath><clipPath id="9f7bd1cbda"><path d="M 0.0625 30 L 34.851562 30 L 34.851562 54 L 0.0625 54 Z M 0.0625 30 " clip-rule="nonzero"/></clipPath><clipPath id="7720bc48a5"><path d="M 0.0625 13.269531 L 34.851562 13.269531 L 34.851562 37 L 0.0625 37 Z M 0.0625 13.269531 " clip-rule="nonzero"/></clipPath></defs><g clip-path="url(#5ccb3a9577)"><path fill="#000000" d="M 97.964844 38.742188 L 67.570312 53.722656 C 66.265625 54.367188 64.53125 53.296875 64.53125 51.796875 L 64.53125 47.945312 C 64.53125 47.089844 64.964844 46.445312 65.832031 46.019531 L 96.226562 31.035156 C 97.746094 30.394531 99.265625 31.464844 99.265625 32.960938 L 99.265625 36.816406 C 99.265625 37.671875 98.832031 38.3125 97.964844 38.742188 Z M 97.964844 38.742188 " fill-opacity="1" fill-rule="nonzero"/></g><g clip-path="url(#253ed9ee10)"><path fill="#000000" d="M 96.226562 36.601562 L 65.832031 21.617188 C 64.964844 21.1875 64.53125 20.546875 64.53125 19.691406 L 64.53125 15.839844 C 64.53125 14.339844 66.265625 13.269531 67.570312 13.910156 L 97.964844 28.894531 C 98.613281 29.324219 99.265625 29.964844 99.265625 30.820312 L 99.265625 34.675781 C 99.265625 36.171875 97.527344 37.242188 96.226562 36.601562 Z M 96.226562 36.601562 " fill-opacity="1" fill-rule="nonzero"/></g><g clip-path="url(#2737752b95)"><path fill="#38b6ff" d="M 50.898438 32.097656 L 55.984375 30.394531 L 38.597656 65.953125 L 47.691406 35.5625 L 40.996094 37.632812 L 60.535156 0.0351562 Z M 50.898438 32.097656 " fill-opacity="1" fill-rule="nonzero"/></g><g clip-path="url(#9f7bd1cbda)"><path fill="#000000" d="M 1.230469 38.742188 L 31.621094 53.722656 C 32.925781 54.367188 34.660156 53.296875 34.660156 51.796875 L 34.660156 47.945312 C 34.660156 47.089844 34.226562 46.445312 33.359375 46.019531 L 2.964844 31.035156 C 1.445312 30.394531 -0.0742188 31.464844 -0.0742188 32.960938 L -0.0742188 36.816406 C -0.0742188 37.671875 0.359375 38.3125 1.230469 38.742188 Z M 1.230469 38.742188 " fill-opacity="1" fill-rule="nonzero"/></g><g clip-path="url(#7720bc48a5)"><path fill="#000000" d="M 2.964844 36.601562 L 33.359375 21.617188 C 34.226562 21.1875 34.660156 20.546875 34.660156 19.691406 L 34.660156 15.839844 C 34.660156 14.339844 32.925781 13.269531 31.621094 13.910156 L 1.230469 28.894531 C 0.578125 29.324219 -0.0742188 29.964844 -0.0742188 30.820312 L -0.0742188 34.675781 C -0.0742188 36.171875 1.664062 37.242188 2.964844 36.601562 Z M 2.964844 36.601562 " fill-opacity="1" fill-rule="nonzero"/></g></svg>