<svg xmlns="http://www.w3.org/2000/svg" xmlns:xlink="http://www.w3.org/1999/xlink" width="407" zoomAndPan="magnify" viewBox="0 0 305.25 305.249988" height="407" preserveAspectRatio="xMidYMid meet" version="1.0"><defs><clipPath id="f6ebc0b8e5"><path d="M 172.835938 130.652344 L 189.511719 130.652344 L 189.511719 152.277344 L 172.835938 152.277344 Z M 172.835938 130.652344 " clip-rule="nonzero"/></clipPath><clipPath id="3e263f50a3"><path d="M 181.175781 130.652344 C 183.386719 130.652344 185.507812 131.53125 187.070312 133.09375 C 188.632812 134.65625 189.511719 136.777344 189.511719 138.988281 L 189.511719 143.878906 C 189.511719 146.089844 188.632812 148.210938 187.070312 149.773438 C 185.507812 151.335938 183.386719 152.214844 181.175781 152.214844 C 178.964844 152.214844 176.84375 151.335938 175.28125 149.773438 C 173.714844 148.210938 172.835938 146.089844 172.835938 143.878906 L 172.835938 138.988281 C 172.835938 136.777344 173.714844 134.65625 175.28125 133.09375 C 176.84375 131.53125 178.964844 130.652344 181.175781 130.652344 Z M 181.175781 130.652344 " clip-rule="nonzero"/></clipPath><clipPath id="a2df7bbc00"><path d="M 37 37 L 268 37 L 268 267 L 37 267 Z M 37 37 " clip-rule="nonzero"/></clipPath><clipPath id="06072e5c80"><path d="M 95.265625 0 L 304.292969 95.210938 L 209.082031 304.234375 L 0.0585938 209.027344 Z M 95.265625 0 " clip-rule="nonzero"/></clipPath><clipPath id="7357147f69"><path d="M 95.265625 0 L 304.292969 95.210938 L 209.082031 304.234375 L 0.0585938 209.027344 Z M 95.265625 0 " clip-rule="nonzero"/></clipPath><clipPath id="012034def1"><path d="M 95.265625 0 L 304.292969 95.210938 L 209.082031 304.234375 L 0.0585938 209.027344 Z M 95.265625 0 " clip-rule="nonzero"/></clipPath><clipPath id="243035798a"><path d="M 179 138 L 243 138 L 243 215 L 179 215 Z M 179 138 " clip-rule="nonzero"/></clipPath><clipPath id="e269f168e4"><path d="M 95.265625 0 L 304.292969 95.210938 L 209.082031 304.234375 L 0.0585938 209.027344 Z M 95.265625 0 " clip-rule="nonzero"/></clipPath><clipPath id="c695337844"><path d="M 95.265625 0 L 304.292969 95.210938 L 209.082031 304.234375 L 0.0585938 209.027344 Z M 95.265625 0 " clip-rule="nonzero"/></clipPath><clipPath id="856c2f56c8"><path d="M 95.265625 0 L 304.292969 95.210938 L 209.082031 304.234375 L 0.0585938 209.027344 Z M 95.265625 0 " clip-rule="nonzero"/></clipPath><clipPath id="d9f0bffa5e"><path d="M 67 75 L 133 75 L 133 150 L 67 150 Z M 67 75 " clip-rule="nonzero"/></clipPath><clipPath id="4a961143f5"><path d="M 95.265625 0 L 304.292969 95.210938 L 209.082031 304.234375 L 0.0585938 209.027344 Z M 95.265625 0 " clip-rule="nonzero"/></clipPath><clipPath id="61cc44fdb3"><path d="M 95.265625 0 L 304.292969 95.210938 L 209.082031 304.234375 L 0.0585938 209.027344 Z M 95.265625 0 " clip-rule="nonzero"/></clipPath><clipPath id="e7f094098b"><path d="M 95.265625 0 L 304.292969 95.210938 L 209.082031 304.234375 L 0.0585938 209.027344 Z M 95.265625 0 " clip-rule="nonzero"/></clipPath><clipPath id="e351069ff7"><path d="M 61 140 L 206 140 L 206 232 L 61 232 Z M 61 140 " clip-rule="nonzero"/></clipPath><clipPath id="aecf12264d"><path d="M 95.265625 0 L 304.292969 95.210938 L 209.082031 304.234375 L 0.0585938 209.027344 Z M 95.265625 0 " clip-rule="nonzero"/></clipPath><clipPath id="715b57e05d"><path d="M 95.265625 0 L 304.292969 95.210938 L 209.082031 304.234375 L 0.0585938 209.027344 Z M 95.265625 0 " clip-rule="nonzero"/></clipPath><clipPath id="9d51c5ab24"><path d="M 95.265625 0 L 304.292969 95.210938 L 209.082031 304.234375 L 0.0585938 209.027344 Z M 95.265625 0 " clip-rule="nonzero"/></clipPath><clipPath id="1c535ca8e3"><path d="M 110 72 L 241 72 L 241 154 L 110 154 Z M 110 72 " clip-rule="nonzero"/></clipPath><clipPath id="517bb66f0e"><path d="M 95.265625 0 L 304.292969 95.210938 L 209.082031 304.234375 L 0.0585938 209.027344 Z M 95.265625 0 " clip-rule="nonzero"/></clipPath><clipPath id="1330dd2139"><path d="M 95.265625 0 L 304.292969 95.210938 L 209.082031 304.234375 L 0.0585938 209.027344 Z M 95.265625 0 " clip-rule="nonzero"/></clipPath><clipPath id="a3129bc963"><path d="M 95.265625 0 L 304.292969 95.210938 L 209.082031 304.234375 L 0.0585938 209.027344 Z M 95.265625 0 " clip-rule="nonzero"/></clipPath></defs><g clip-path="url(#f6ebc0b8e5)"><g clip-path="url(#3e263f50a3)"><path fill="#ff548f" d="M 172.835938 130.652344 L 189.511719 130.652344 L 189.511719 152.210938 L 172.835938 152.210938 Z M 172.835938 130.652344 " fill-opacity="1" fill-rule="nonzero"/></g></g><g clip-path="url(#a2df7bbc00)"><g clip-path="url(#06072e5c80)"><g clip-path="url(#7357147f69)"><g clip-path="url(#012034def1)"><path fill="#1e88e5" d="M 256.6875 199.722656 C 255.910156 201.429688 255.085938 203.121094 254.226562 204.792969 C 253.363281 206.460938 252.460938 208.109375 251.519531 209.734375 C 250.574219 211.363281 249.59375 212.964844 248.570312 214.539062 C 247.550781 216.117188 246.488281 217.671875 245.390625 219.195312 C 244.292969 220.722656 243.160156 222.21875 241.988281 223.6875 C 240.816406 225.160156 239.609375 226.597656 238.367188 228.007812 C 237.125 229.421875 235.851562 230.800781 234.539062 232.148438 C 233.230469 233.496094 231.890625 234.808594 230.515625 236.09375 C 229.140625 237.375 227.734375 238.621094 226.300781 239.835938 C 224.863281 241.046875 223.398438 242.226562 221.90625 243.367188 C 220.414062 244.507812 218.894531 245.613281 217.34375 246.679688 C 215.796875 247.746094 214.226562 248.773438 212.625 249.761719 C 211.027344 250.75 209.40625 251.699219 207.761719 252.609375 C 206.117188 253.519531 204.453125 254.390625 202.765625 255.21875 C 201.078125 256.046875 199.371094 256.832031 197.644531 257.574219 C 195.917969 258.320312 194.175781 259.019531 192.414062 259.679688 C 190.65625 260.335938 188.878906 260.953125 187.089844 261.523438 C 185.296875 262.09375 183.496094 262.621094 181.679688 263.105469 C 179.863281 263.589844 178.035156 264.027344 176.199219 264.417969 C 174.359375 264.8125 172.511719 265.160156 170.65625 265.464844 C 168.804688 265.765625 166.941406 266.023438 165.074219 266.234375 C 163.207031 266.445312 161.335938 266.609375 159.460938 266.730469 C 157.582031 266.847656 155.707031 266.921875 153.828125 266.949219 C 151.949219 266.976562 150.070312 266.957031 148.191406 266.890625 C 146.3125 266.824219 144.4375 266.714844 142.5625 266.558594 C 140.691406 266.398438 138.824219 266.195312 136.960938 265.949219 C 135.097656 265.699219 133.242188 265.402344 131.394531 265.0625 C 129.542969 264.722656 127.707031 264.339844 125.875 263.90625 C 124.046875 263.476562 122.226562 263.003906 120.421875 262.484375 C 118.617188 261.964844 116.824219 261.398438 115.042969 260.792969 C 113.265625 260.183594 111.503906 259.535156 109.757812 258.839844 C 108.011719 258.144531 106.28125 257.410156 104.570312 256.628906 C 102.859375 255.851562 101.171875 255.03125 99.5 254.167969 C 97.832031 253.304688 96.183594 252.402344 94.558594 251.460938 C 92.929688 250.515625 91.328125 249.535156 89.75 248.511719 C 88.175781 247.492188 86.621094 246.433594 85.097656 245.335938 C 83.570312 244.234375 82.074219 243.101562 80.605469 241.929688 C 79.132812 240.757812 77.695312 239.550781 76.285156 238.308594 C 74.871094 237.066406 73.492188 235.792969 72.144531 234.484375 C 70.796875 233.171875 69.480469 231.832031 68.199219 230.457031 C 66.917969 229.082031 65.671875 227.675781 64.457031 226.242188 C 63.246094 224.804688 62.066406 223.339844 60.925781 221.847656 C 59.785156 220.355469 58.679688 218.835938 57.613281 217.285156 C 56.546875 215.738281 55.519531 214.167969 54.53125 212.570312 C 53.542969 210.96875 52.589844 209.347656 51.683594 207.703125 C 50.773438 206.058594 49.902344 204.394531 49.074219 202.707031 C 48.246094 201.019531 47.460938 199.3125 46.71875 197.585938 C 45.972656 195.859375 45.273438 194.117188 44.613281 192.359375 C 43.953125 190.597656 43.339844 188.820312 42.769531 187.03125 C 42.195312 185.242188 41.667969 183.4375 41.1875 181.621094 C 40.703125 179.804688 40.265625 177.976562 39.875 176.140625 C 39.480469 174.300781 39.132812 172.453125 38.828125 170.601562 C 38.527344 168.746094 38.269531 166.882812 38.058594 165.015625 C 37.847656 163.148438 37.683594 161.277344 37.5625 159.402344 C 37.445312 157.527344 37.371094 155.648438 37.34375 153.769531 C 37.316406 151.890625 37.335938 150.011719 37.402344 148.132812 C 37.46875 146.253906 37.578125 144.378906 37.734375 142.503906 C 37.894531 140.632812 38.097656 138.765625 38.34375 136.902344 C 38.59375 135.039062 38.886719 133.183594 39.230469 131.335938 C 39.570312 129.484375 39.953125 127.648438 40.382812 125.816406 C 40.816406 123.988281 41.289062 122.171875 41.808594 120.363281 C 42.328125 118.558594 42.894531 116.765625 43.5 114.988281 C 44.109375 113.207031 44.757812 111.445312 45.453125 109.699219 C 46.148438 107.953125 46.882812 106.222656 47.664062 104.511719 C 48.441406 102.804688 49.261719 101.113281 50.125 99.441406 C 50.988281 97.773438 51.890625 96.125 52.832031 94.5 C 53.777344 92.871094 54.757812 91.269531 55.78125 89.695312 C 56.800781 88.117188 57.859375 86.566406 58.957031 85.039062 C 60.054688 83.511719 61.191406 82.015625 62.363281 80.546875 C 63.535156 79.074219 64.742188 77.636719 65.980469 76.226562 C 67.222656 74.816406 68.5 73.433594 69.808594 72.085938 C 71.121094 70.738281 72.460938 69.425781 73.835938 68.140625 C 75.210938 66.859375 76.617188 65.613281 78.050781 64.398438 C 79.488281 63.1875 80.949219 62.007812 82.445312 60.867188 C 83.9375 59.726562 85.457031 58.621094 87.003906 57.554688 C 88.554688 56.488281 90.125 55.460938 91.722656 54.472656 C 93.320312 53.484375 94.945312 52.535156 96.589844 51.625 C 98.234375 50.714844 99.898438 49.84375 101.585938 49.015625 C 103.273438 48.1875 104.980469 47.402344 106.707031 46.660156 C 108.433594 45.914062 110.175781 45.214844 111.933594 44.554688 C 113.695312 43.898438 115.472656 43.28125 117.261719 42.710938 C 119.050781 42.140625 120.855469 41.613281 122.671875 41.128906 C 124.488281 40.644531 126.316406 40.207031 128.152344 39.816406 C 129.992188 39.421875 131.835938 39.074219 133.691406 38.773438 C 135.546875 38.46875 137.410156 38.210938 139.277344 38 C 141.144531 37.789062 143.015625 37.625 144.890625 37.503906 C 146.765625 37.386719 148.644531 37.3125 150.523438 37.285156 C 152.402344 37.257812 154.28125 37.277344 156.160156 37.34375 C 158.039062 37.410156 159.914062 37.519531 161.789062 37.675781 C 163.660156 37.835938 165.527344 38.039062 167.390625 38.285156 C 169.253906 38.535156 171.109375 38.832031 172.957031 39.171875 C 174.808594 39.511719 176.644531 39.894531 178.476562 40.328125 C 180.304688 40.757812 182.121094 41.230469 183.929688 41.75 C 185.734375 42.269531 187.527344 42.835938 189.304688 43.441406 C 191.085938 44.050781 192.847656 44.699219 194.59375 45.394531 C 196.339844 46.089844 198.070312 46.828125 199.777344 47.605469 C 201.488281 48.382812 203.179688 49.203125 204.851562 50.066406 C 206.519531 50.929688 208.167969 51.832031 209.792969 52.773438 C 211.417969 53.71875 213.019531 54.699219 214.597656 55.722656 C 216.175781 56.742188 217.726562 57.800781 219.253906 58.902344 C 220.78125 60 222.277344 61.132812 223.746094 62.304688 C 225.214844 63.476562 226.65625 64.683594 228.066406 65.925781 C 229.476562 67.167969 230.859375 68.441406 232.207031 69.75 C 233.554688 71.0625 234.867188 72.402344 236.152344 73.777344 C 237.433594 75.152344 238.679688 76.558594 239.894531 77.992188 C 241.105469 79.429688 242.285156 80.894531 243.425781 82.386719 C 244.566406 83.878906 245.667969 85.398438 246.738281 86.949219 C 247.804688 88.496094 248.832031 90.066406 249.820312 91.664062 C 250.808594 93.265625 251.757812 94.886719 252.667969 96.53125 C 253.578125 98.175781 254.449219 99.839844 255.273438 101.527344 C 256.101562 103.214844 256.890625 104.921875 257.632812 106.648438 C 258.378906 108.375 259.078125 110.117188 259.738281 111.878906 C 260.394531 113.636719 261.011719 115.414062 261.582031 117.203125 C 262.152344 118.992188 262.679688 120.796875 263.164062 122.613281 C 263.648438 124.429688 264.085938 126.257812 264.476562 128.09375 C 264.871094 129.933594 265.21875 131.78125 265.519531 133.632812 C 265.824219 135.488281 266.082031 137.351562 266.292969 139.21875 C 266.503906 141.085938 266.667969 142.957031 266.785156 144.832031 C 266.90625 146.710938 266.980469 148.585938 267.007812 150.464844 C 267.035156 152.34375 267.015625 154.222656 266.949219 156.101562 C 266.882812 157.980469 266.773438 159.855469 266.617188 161.730469 C 266.457031 163.601562 266.253906 165.46875 266.003906 167.332031 C 265.757812 169.195312 265.460938 171.050781 265.121094 172.898438 C 264.78125 174.75 264.398438 176.585938 263.964844 178.417969 C 263.535156 180.246094 263.0625 182.066406 262.542969 183.871094 C 262.019531 185.675781 261.457031 187.46875 260.851562 189.246094 C 260.242188 191.027344 259.589844 192.789062 258.898438 194.535156 C 258.203125 196.28125 257.464844 198.011719 256.6875 199.722656 Z M 256.6875 199.722656 " fill-opacity="1" fill-rule="nonzero"/></g></g></g></g><g clip-path="url(#243035798a)"><g clip-path="url(#e269f168e4)"><g clip-path="url(#c695337844)"><g clip-path="url(#856c2f56c8)"><path fill="#eaeaea" d="M 242.683594 138.925781 L 179.074219 154.679688 L 209.609375 214.421875 L 241.75 143.855469 C 242.496094 142.292969 242.804688 140.652344 242.683594 138.925781 Z M 242.683594 138.925781 " fill-opacity="1" fill-rule="nonzero"/></g></g></g></g><g clip-path="url(#d9f0bffa5e)"><g clip-path="url(#4a961143f5)"><g clip-path="url(#61cc44fdb3)"><g clip-path="url(#e7f094098b)"><path fill="#eaeaea" d="M 102.722656 75.175781 C 101.339844 76.214844 100.304688 77.527344 99.617188 79.113281 L 67.472656 149.679688 L 132.589844 133.503906 Z M 102.722656 75.175781 " fill-opacity="1" fill-rule="nonzero"/></g></g></g></g><g clip-path="url(#e351069ff7)"><g clip-path="url(#aecf12264d)"><g clip-path="url(#715b57e05d)"><g clip-path="url(#9d51c5ab24)"><path fill="#eaeaea" d="M 156.542969 160.265625 C 155.265625 160.691406 153.960938 160.859375 152.617188 160.773438 C 151.277344 160.6875 150.003906 160.351562 148.792969 159.765625 C 147.488281 159.1875 146.335938 158.390625 145.335938 157.375 C 144.332031 156.363281 143.550781 155.199219 142.988281 153.890625 L 135.929688 140.578125 L 63.550781 158.289062 L 62.597656 160.382812 C 62.296875 161.046875 62.0625 161.734375 61.894531 162.441406 C 61.726562 163.152344 61.632812 163.875 61.605469 164.601562 C 61.582031 165.332031 61.625 166.058594 61.742188 166.777344 C 61.859375 167.5 62.046875 168.199219 62.304688 168.882812 C 62.558594 169.566406 62.878906 170.21875 63.261719 170.839844 C 63.648438 171.460938 64.089844 172.039062 64.585938 172.570312 C 65.085938 173.105469 65.628906 173.585938 66.222656 174.011719 C 66.816406 174.4375 67.445312 174.804688 68.109375 175.105469 L 190.011719 230.628906 C 190.675781 230.933594 191.363281 231.167969 192.074219 231.335938 C 192.78125 231.503906 193.503906 231.597656 194.234375 231.625 C 194.960938 231.648438 195.6875 231.601562 196.40625 231.484375 C 197.128906 231.367188 197.828125 231.183594 198.515625 230.925781 C 199.199219 230.671875 199.847656 230.351562 200.46875 229.964844 C 201.089844 229.582031 201.667969 229.140625 202.203125 228.644531 C 202.734375 228.144531 203.214844 227.601562 203.640625 227.007812 C 204.066406 226.414062 204.433594 225.785156 204.734375 225.121094 L 205.6875 223.03125 L 171.699219 156.464844 Z M 156.542969 160.265625 " fill-opacity="1" fill-rule="nonzero"/></g></g></g></g><g clip-path="url(#1c535ca8e3)"><g clip-path="url(#517bb66f0e)"><g clip-path="url(#1330dd2139)"><g clip-path="url(#a3129bc963)"><path fill="#eaeaea" d="M 143.289062 138.378906 L 149.574219 150.730469 C 149.75 151.199219 150.007812 151.617188 150.351562 151.980469 C 150.691406 152.347656 151.089844 152.632812 151.542969 152.839844 C 151.996094 153.046875 152.476562 153.160156 152.972656 153.175781 C 153.472656 153.195312 153.957031 153.117188 154.425781 152.941406 L 168.265625 149.148438 L 175.644531 147.359375 L 240.066406 131.375 C 239.007812 130.171875 237.753906 129.230469 236.304688 128.550781 L 114.570312 73.101562 C 113.132812 72.457031 111.628906 72.140625 110.054688 72.15625 L 140.078125 131.464844 Z M 143.289062 138.378906 " fill-opacity="1" fill-rule="nonzero"/></g></g></g></g></svg>