<svg xmlns="http://www.w3.org/2000/svg" xmlns:xlink="http://www.w3.org/1999/xlink" width="308" zoomAndPan="magnify" viewBox="0 0 230.87999 231" height="308" preserveAspectRatio="xMidYMid meet" version="1.0"><defs><clipPath id="dbdff7bbbe"><path d="M 157.070312 96.082031 L 207.996094 96.082031 L 207.996094 134.316406 L 157.070312 134.316406 Z M 157.070312 96.082031 " clip-rule="nonzero"/></clipPath><clipPath id="328406ce70"><path d="M 176.1875 96.082031 L 188.820312 96.082031 C 199.378906 96.082031 207.9375 104.640625 207.9375 115.199219 C 207.9375 125.757812 199.378906 134.316406 188.820312 134.316406 L 176.1875 134.316406 C 165.628906 134.316406 157.070312 125.757812 157.070312 115.199219 C 157.070312 104.640625 165.628906 96.082031 176.1875 96.082031 Z M 176.1875 96.082031 " clip-rule="nonzero"/></clipPath><clipPath id="5b8f108f72"><path d="M 0 0.0585938 L 230.128906 0.0585938 L 230.128906 230.191406 L 0 230.191406 Z M 0 0.0585938 " clip-rule="nonzero"/></clipPath></defs><g clip-path="url(#dbdff7bbbe)"><g clip-path="url(#328406ce70)"><path fill="#63d3ff" d="M 157.070312 96.082031 L 207.996094 96.082031 L 207.996094 134.316406 L 157.070312 134.316406 Z M 157.070312 96.082031 " fill-opacity="1" fill-rule="nonzero"/></g></g><g clip-path="url(#5b8f108f72)"><path fill="#2ea100" d="M 115.128906 0.0585938 C 178.632812 0.0585938 230.117188 51.542969 230.117188 115.054688 C 230.117188 178.566406 178.632812 230.050781 115.128906 230.050781 C 94.21875 230.050781 74.609375 224.46875 57.71875 214.71875 L 49.289062 216.976562 L 0 230.175781 L 13.207031 180.894531 L 15.464844 172.464844 C 5.710938 155.566406 0.132812 135.964844 0.132812 115.054688 C 0.132812 51.542969 51.617188 0.0585938 115.128906 0.0585938 Z M 115.128906 0.0585938 " fill-opacity="1" fill-rule="evenodd"/></g><path fill="#fefefe" d="M 82.890625 102.261719 C 87.507812 119.347656 110.828125 142.675781 127.921875 147.285156 L 138.183594 137.023438 C 140.632812 134.574219 144.230469 133.875 147.421875 135.234375 C 148.101562 135.523438 148.808594 135.765625 149.496094 136.054688 C 157.09375 139.261719 164.730469 142.367188 172.371094 145.476562 C 174.71875 146.4375 176.425781 148.265625 177.203125 150.6875 C 177.972656 153.09375 177.660156 155.601562 176.320312 157.742188 C 152.917969 194.945312 105.863281 172.625 81.917969 148.679688 C 81.847656 148.609375 81.777344 148.539062 81.699219 148.460938 C 81.636719 148.398438 81.566406 148.328125 81.496094 148.257812 C 57.550781 124.3125 35.238281 77.257812 72.441406 53.863281 C 74.582031 52.519531 77.085938 52.203125 79.488281 52.980469 C 81.910156 53.757812 83.746094 55.457031 84.703125 57.8125 C 87.816406 65.445312 90.914062 73.089844 94.121094 80.6875 C 94.414062 81.375 94.660156 82.074219 94.949219 82.761719 C 96.308594 85.953125 95.617188 89.546875 93.160156 91.992188 Z M 82.890625 102.261719 " fill-opacity="1" fill-rule="evenodd"/></svg>