<svg xmlns="http://www.w3.org/2000/svg" xmlns:xlink="http://www.w3.org/1999/xlink" width="192" zoomAndPan="magnify" viewBox="0 0 144 143.999998" height="192" preserveAspectRatio="xMidYMid meet" version="1.0"><defs><clipPath id="5a1950783f"><path d="M 22.5 0 L 121.5 0 C 133.925781 0 144 10.074219 144 22.5 L 144 121.5 C 144 133.925781 133.925781 144 121.5 144 L 22.5 144 C 10.074219 144 0 133.925781 0 121.5 L 0 22.5 C 0 10.074219 10.074219 0 22.5 0 Z M 22.5 0 " clip-rule="nonzero"/></clipPath><clipPath id="48b64d7676"><path d="M 45 23.960938 L 99 23.960938 L 99 119.960938 L 45 119.960938 Z M 45 23.960938 " clip-rule="nonzero"/></clipPath></defs><g clip-path="url(#5a1950783f)"><rect x="-14.4" width="172.8" fill="#02779e" y="-14.4" height="172.799997" fill-opacity="1"/></g><g clip-path="url(#48b64d7676)"><path fill="#000000" d="M 98.066406 47.238281 C 98.355469 47.238281 98.609375 47.042969 98.6875 46.761719 C 98.757812 46.480469 98.632812 46.183594 98.382812 46.042969 L 88.933594 40.699219 C 88.921875 40.691406 88.914062 40.679688 88.898438 40.671875 L 85.515625 38.71875 L 85.515625 24.601562 C 85.515625 24.324219 85.339844 24.082031 85.078125 23.996094 C 84.816406 23.90625 84.527344 24 84.363281 24.222656 L 76.148438 35.359375 L 67.480469 35.378906 L 59.34375 24.347656 C 59.179688 24.125 58.894531 24.035156 58.632812 24.121094 C 58.367188 24.207031 58.191406 24.453125 58.191406 24.730469 L 58.191406 38.746094 L 56.441406 39.792969 C 56.433594 39.796875 56.425781 39.796875 56.417969 39.800781 L 45.539062 46.042969 C 45.289062 46.1875 45.164062 46.484375 45.242188 46.761719 C 45.316406 47.042969 45.566406 47.234375 45.859375 47.234375 L 47.988281 47.234375 L 47.988281 48.289062 L 46.984375 48.289062 C 46.5625 48.289062 46.21875 48.632812 46.21875 49.054688 C 46.21875 49.476562 46.5625 49.824219 46.984375 49.824219 L 47.988281 49.824219 L 47.988281 50.527344 L 46.984375 50.527344 C 46.5625 50.527344 46.21875 50.871094 46.21875 51.292969 C 46.21875 51.71875 46.5625 52.0625 46.984375 52.0625 L 47.988281 52.0625 L 47.988281 54.171875 C 47.988281 54.453125 48.214844 54.683594 48.5 54.683594 L 51.054688 54.683594 C 51.339844 54.683594 51.566406 54.453125 51.566406 54.171875 L 51.566406 52.0625 L 52.738281 52.0625 C 53.164062 52.0625 53.507812 51.714844 53.507812 51.292969 C 53.507812 50.871094 53.164062 50.527344 52.738281 50.527344 L 51.566406 50.527344 L 51.566406 49.824219 L 52.738281 49.824219 C 53.164062 49.824219 53.507812 49.476562 53.507812 49.054688 C 53.507812 48.632812 53.164062 48.289062 52.738281 48.289062 L 51.566406 48.289062 L 51.566406 47.234375 L 56.367188 47.234375 L 66.816406 78.472656 L 61.113281 102.921875 L 54.617188 117.832031 C 54.582031 117.914062 54.566406 118 54.566406 118.085938 L 52.773438 118.085938 L 52.773438 119.960938 L 62.363281 119.960938 L 62.363281 118.085938 L 60.074219 118.085938 L 70.113281 103.761719 L 73.539062 103.761719 L 83.457031 118.085938 L 81.25 118.085938 L 81.25 119.960938 L 90.839844 119.960938 L 90.839844 118.085938 L 89.085938 118.085938 C 89.085938 118 89.074219 117.914062 89.039062 117.832031 L 82.542969 102.929688 L 77.601562 78.476562 L 87.371094 47.234375 L 93.035156 47.234375 L 93.035156 48.289062 L 92.035156 48.289062 C 91.609375 48.289062 91.265625 48.632812 91.265625 49.054688 C 91.265625 49.476562 91.609375 49.820312 92.035156 49.820312 L 93.035156 49.820312 L 93.035156 50.527344 L 92.035156 50.527344 C 91.609375 50.527344 91.265625 50.871094 91.265625 51.292969 C 91.265625 51.714844 91.609375 52.058594 92.035156 52.058594 L 93.035156 52.058594 L 93.035156 54.171875 C 93.035156 54.453125 93.265625 54.679688 93.546875 54.679688 L 96.105469 54.679688 C 96.386719 54.679688 96.617188 54.453125 96.617188 54.171875 L 96.617188 52.058594 L 97.789062 52.058594 C 98.210938 52.058594 98.554688 51.714844 98.554688 51.292969 C 98.554688 50.871094 98.210938 50.527344 97.789062 50.527344 L 96.617188 50.527344 L 96.617188 49.820312 L 97.789062 49.820312 C 98.210938 49.820312 98.554688 49.476562 98.554688 49.054688 C 98.554688 48.632812 98.210938 48.289062 97.789062 48.289062 L 96.617188 48.289062 L 96.617188 47.234375 L 98.066406 47.234375 Z M 52.738281 51.039062 C 52.878906 51.039062 52.996094 51.15625 52.996094 51.296875 C 52.996094 51.4375 52.878906 51.550781 52.738281 51.550781 L 46.984375 51.550781 C 46.84375 51.550781 46.726562 51.4375 46.726562 51.296875 C 46.726562 51.15625 46.84375 51.039062 46.984375 51.039062 Z M 52.738281 48.800781 C 52.878906 48.800781 52.996094 48.917969 52.996094 49.058594 C 52.996094 49.199219 52.878906 49.3125 52.738281 49.3125 L 46.984375 49.3125 C 46.84375 49.3125 46.726562 49.199219 46.726562 49.058594 C 46.726562 48.917969 46.84375 48.800781 46.984375 48.800781 Z M 97.789062 51.039062 C 97.929688 51.039062 98.046875 51.15625 98.046875 51.296875 C 98.046875 51.4375 97.929688 51.550781 97.789062 51.550781 L 92.035156 51.550781 C 91.890625 51.550781 91.777344 51.4375 91.777344 51.296875 C 91.777344 51.15625 91.890625 51.039062 92.035156 51.039062 Z M 97.789062 48.800781 C 97.929688 48.800781 98.046875 48.917969 98.046875 49.058594 C 98.046875 49.199219 97.929688 49.3125 97.789062 49.3125 L 92.035156 49.3125 C 91.890625 49.3125 91.777344 49.199219 91.777344 49.058594 C 91.777344 48.917969 91.890625 48.800781 92.035156 48.800781 Z M 64.589844 102.484375 L 71.761719 99.253906 L 78.609375 102.484375 Z M 62.582031 102.269531 L 64.125 95.648438 L 70.542969 98.679688 Z M 67.035156 83.175781 L 70.960938 85.109375 L 66.007812 87.578125 Z M 68.757812 82.882812 L 75.429688 82.882812 L 72.109375 84.535156 Z M 72.113281 85.679688 L 77.734375 88.449219 L 72.0625 90.808594 L 66.539062 88.453125 Z M 65.632812 89.179688 L 70.742188 91.359375 L 64.523438 93.945312 Z M 64.914062 94.890625 L 72.058594 91.917969 L 78.984375 94.871094 L 71.769531 98.125 Z M 73.378906 91.371094 L 78.472656 89.25 L 79.421875 93.949219 Z M 73.265625 85.105469 L 77.238281 83.128906 L 78.121094 87.5 Z M 67.339844 81.859375 L 67.988281 79.082031 L 76.417969 79.082031 L 76.980469 81.859375 Z M 69.5625 69.085938 L 64.988281 68.070312 L 65.519531 64.007812 Z M 79.058594 63.492188 L 79.449219 68.007812 L 74.46875 69.050781 Z M 73.519531 70.195312 L 75.769531 77.804688 L 68.371094 77.804688 L 70.410156 70.152344 L 71.5625 71.597656 C 71.660156 71.71875 71.804688 71.789062 71.957031 71.792969 C 71.960938 71.792969 71.960938 71.792969 71.960938 71.792969 C 72.113281 71.792969 72.257812 71.722656 72.355469 71.605469 Z M 64.160156 66.503906 L 61.734375 59.253906 L 64.632812 62.894531 Z M 69.367188 70.089844 L 67.589844 76.761719 L 65.039062 69.128906 Z M 76.660156 77.207031 L 74.550781 70.078125 L 79.191406 69.105469 Z M 79.988281 62.367188 L 82.097656 59.8125 L 80.273438 65.652344 Z M 82.90625 57.230469 L 71.96875 70.46875 L 65.574219 62.433594 L 61.394531 57.183594 L 67.785156 47.238281 L 69.929688 47.238281 L 69.929688 48.289062 L 68.929688 48.289062 C 68.503906 48.289062 68.160156 48.632812 68.160156 49.054688 C 68.160156 49.480469 68.503906 49.824219 68.929688 49.824219 L 69.929688 49.824219 L 69.929688 50.527344 L 68.929688 50.527344 C 68.503906 50.527344 68.160156 50.871094 68.160156 51.292969 C 68.160156 51.71875 68.503906 52.0625 68.929688 52.0625 L 69.929688 52.0625 L 69.929688 54.171875 C 69.929688 54.453125 70.160156 54.683594 70.441406 54.683594 L 73 54.683594 C 73.28125 54.683594 73.511719 54.453125 73.511719 54.171875 L 73.511719 52.0625 L 74.683594 52.0625 C 75.105469 52.0625 75.449219 51.71875 75.449219 51.292969 C 75.449219 50.871094 75.105469 50.527344 74.683594 50.527344 L 73.511719 50.527344 L 73.511719 49.824219 L 74.683594 49.824219 C 75.105469 49.824219 75.449219 49.480469 75.449219 49.054688 C 75.449219 48.632812 75.105469 48.289062 74.683594 48.289062 L 73.511719 48.289062 L 73.511719 47.238281 L 75.933594 47.238281 L 82.925781 57.171875 Z M 60.902344 38.617188 L 57.03125 45.191406 L 55.84375 41.640625 Z M 71.332031 36.652344 L 67.3125 44.953125 L 63.230469 37.222656 L 64.160156 36.667969 Z M 79.34375 36.628906 L 80.132812 37.085938 L 76.175781 45.289062 L 72.992188 36.644531 Z M 67.960938 45.960938 L 72.148438 37.316406 L 75.332031 45.960938 Z M 62.46875 37.96875 L 66.683594 45.960938 L 57.769531 45.960938 Z M 74.683594 48.800781 C 74.824219 48.800781 74.941406 48.917969 74.941406 49.058594 C 74.941406 49.199219 74.824219 49.3125 74.683594 49.3125 L 68.929688 49.3125 C 68.785156 49.3125 68.671875 49.199219 68.671875 49.058594 C 68.671875 48.917969 68.785156 48.800781 68.929688 48.800781 Z M 74.683594 51.039062 C 74.824219 51.039062 74.941406 51.15625 74.941406 51.296875 C 74.941406 51.4375 74.824219 51.550781 74.683594 51.550781 L 68.929688 51.550781 C 68.785156 51.550781 68.671875 51.4375 68.671875 51.296875 C 68.671875 51.15625 68.785156 51.039062 68.929688 51.039062 Z M 80.894531 37.859375 L 85.554688 45.957031 L 76.988281 45.957031 Z M 82.378906 38.382812 L 86.820312 40.949219 C 86.847656 40.972656 86.871094 41.003906 86.90625 41.023438 L 87.816406 41.535156 L 86.539062 45.617188 Z M 83.703125 37.671875 L 81.199219 31.390625 L 84.238281 30.253906 L 84.238281 37.980469 Z M 84.238281 28.910156 C 84.203125 28.917969 84.167969 28.914062 84.136719 28.925781 L 81.851562 29.78125 L 84.238281 26.546875 Z M 80.117188 32.132812 L 81.914062 36.636719 L 79.832031 35.433594 C 79.738281 35.378906 79.625 35.347656 79.511719 35.347656 L 77.738281 35.355469 Z M 63.980469 35.390625 C 63.863281 35.390625 63.75 35.421875 63.652344 35.480469 L 61.628906 36.691406 L 63.464844 32.089844 L 65.898438 35.386719 Z M 62.082031 30.210938 L 59.46875 29.234375 L 59.46875 26.671875 Z M 59.46875 30.601562 L 62.265625 31.644531 L 59.824219 37.769531 L 59.472656 37.980469 L 59.472656 30.601562 Z M 48.257812 45.960938 L 54.703125 42.257812 L 55.941406 45.960938 Z M 66.566406 47.238281 L 60.746094 56.300781 L 57.71875 47.238281 Z M 58.960938 117.449219 L 56.179688 117.449219 L 62.144531 103.765625 L 68.550781 103.765625 Z M 84.566406 117.449219 L 75.09375 103.765625 L 81.511719 103.765625 L 87.476562 117.449219 Z M 81.007812 102.484375 L 72.984375 98.699219 L 79.765625 95.644531 L 81.148438 102.484375 Z M 83.308594 55.941406 L 77.1875 47.238281 L 86.03125 47.238281 Z M 88.953125 42.179688 L 95.636719 45.957031 L 87.773438 45.957031 Z M 88.953125 42.179688 " fill-opacity="1" fill-rule="nonzero"/></g></svg>