<svg xmlns="http://www.w3.org/2000/svg" xmlns:xlink="http://www.w3.org/1999/xlink" width="192" zoomAndPan="magnify" viewBox="0 0 144 143.999998" height="192" preserveAspectRatio="xMidYMid meet" version="1.0"><defs><clipPath id="0f43f46d44"><path d="M 22.5 0 L 121.5 0 C 133.925781 0 144 10.074219 144 22.5 L 144 121.5 C 144 133.925781 133.925781 144 121.5 144 L 22.5 144 C 10.074219 144 0 133.925781 0 121.5 L 0 22.5 C 0 10.074219 10.074219 0 22.5 0 Z M 22.5 0 " clip-rule="nonzero"/></clipPath></defs><g clip-path="url(#0f43f46d44)"><rect x="-14.4" width="172.8" fill="#9061c2" y="-14.4" height="172.799997" fill-opacity="1"/></g><path fill="#000000" d="M 71.925781 21.273438 L 115.800781 46.605469 L 115.800781 76.800781 L 106.050781 76.800781 L 106.050781 57.300781 L 76.800781 74.1875 L 76.800781 119.785156 L 71.925781 122.597656 L 28.050781 97.265625 L 28.050781 46.605469 Z M 106.050781 81.675781 L 106.050781 96.300781 L 120.675781 96.300781 L 120.675781 106.050781 L 106.050781 106.050781 L 106.050781 120.675781 L 96.300781 120.675781 L 96.300781 106.050781 L 81.675781 106.050781 L 81.675781 96.300781 L 96.300781 96.300781 L 96.300781 81.675781 Z M 37.800781 57.300781 L 37.800781 91.636719 L 67.050781 108.527344 L 67.050781 74.1875 Z M 71.925781 32.53125 L 43.164062 49.136719 L 71.925781 65.746094 L 100.6875 49.136719 Z M 71.925781 32.53125 " fill-opacity="1" fill-rule="evenodd"/></svg>