<svg xmlns="http://www.w3.org/2000/svg" xmlns:xlink="http://www.w3.org/1999/xlink" width="192" zoomAndPan="magnify" viewBox="0 0 144 143.999998" height="192" preserveAspectRatio="xMidYMid meet" version="1.0"><defs><clipPath id="f99f74e523"><path d="M 22.5 0 L 121.5 0 C 133.925781 0 144 10.074219 144 22.5 L 144 121.5 C 144 133.925781 133.925781 144 121.5 144 L 22.5 144 C 10.074219 144 0 133.925781 0 121.5 L 0 22.5 C 0 10.074219 10.074219 0 22.5 0 Z M 22.5 0 " clip-rule="nonzero"/></clipPath><clipPath id="214fa891c2"><path d="M 56 36 L 88 36 L 88 108.257812 L 56 108.257812 Z M 56 36 " clip-rule="nonzero"/></clipPath></defs><g clip-path="url(#f99f74e523)"><rect x="-14.4" width="172.8" fill="#63d3ff" y="-14.4" height="172.799997" fill-opacity="1"/></g><path fill="#000000" d="M 46.300781 98.011719 C 44.757812 98.011719 43.730469 97.5 42.703125 96.476562 L 22.148438 75.984375 C 20.09375 73.933594 20.09375 70.859375 22.148438 68.808594 L 42.703125 48.316406 C 44.757812 46.269531 47.84375 46.269531 49.898438 48.316406 C 51.953125 50.367188 51.953125 53.441406 49.898438 55.488281 L 32.941406 72.398438 L 49.898438 89.304688 C 51.953125 91.351562 51.953125 94.425781 49.898438 96.476562 C 48.871094 97.5 47.84375 98.011719 46.300781 98.011719 Z M 46.300781 98.011719 " fill-opacity="1" fill-rule="nonzero"/><path fill="#000000" d="M 97.691406 98.011719 C 96.148438 98.011719 95.121094 97.5 94.09375 96.476562 C 92.039062 94.425781 92.039062 91.351562 94.09375 89.304688 L 111.050781 72.398438 L 94.09375 55.488281 C 92.039062 53.441406 92.039062 50.367188 94.09375 48.316406 C 96.148438 46.269531 99.230469 46.269531 101.289062 48.316406 L 121.84375 68.808594 C 123.898438 70.859375 123.898438 73.933594 121.84375 75.984375 L 101.289062 96.476562 C 100.257812 97.5 99.230469 98.011719 97.691406 98.011719 Z M 97.691406 98.011719 " fill-opacity="1" fill-rule="nonzero"/><g clip-path="url(#214fa891c2)"><path fill="#000000" d="M 61.71875 108.257812 C 61.203125 108.257812 60.691406 108.257812 60.175781 107.746094 C 57.605469 106.722656 56.066406 104.160156 57.09375 101.085938 L 77.648438 39.609375 C 78.675781 37.046875 81.246094 35.507812 84.328125 36.535156 C 86.898438 37.558594 88.441406 40.121094 87.414062 43.195312 L 66.855469 104.671875 C 65.828125 106.722656 63.773438 108.257812 61.71875 108.257812 Z M 61.71875 108.257812 " fill-opacity="1" fill-rule="nonzero"/></g></svg>