<svg xmlns="http://www.w3.org/2000/svg" xmlns:xlink="http://www.w3.org/1999/xlink" width="192" zoomAndPan="magnify" viewBox="0 0 144 143.999998" height="192" preserveAspectRatio="xMidYMid meet" version="1.0"><defs><clipPath id="b7f74a1238"><path d="M 22.5 0 L 121.5 0 C 133.925781 0 144 10.074219 144 22.5 L 144 121.5 C 144 133.925781 133.925781 144 121.5 144 L 22.5 144 C 10.074219 144 0 133.925781 0 121.5 L 0 22.5 C 0 10.074219 10.074219 0 22.5 0 Z M 22.5 0 " clip-rule="nonzero"/></clipPath></defs><g clip-path="url(#b7f74a1238)"><rect x="-14.4" width="172.8" fill="#ff548f" y="-14.4" height="172.799997" fill-opacity="1"/></g><path fill="#000000" d="M 82.515625 49.6875 C 82.582031 49.515625 82.625 49.339844 82.648438 49.160156 C 82.671875 48.976562 82.671875 48.796875 82.648438 48.613281 C 82.628906 48.433594 82.585938 48.257812 82.519531 48.085938 C 82.457031 47.917969 82.371094 47.753906 82.265625 47.605469 C 82.164062 47.453125 82.042969 47.320312 81.90625 47.199219 C 81.769531 47.078125 81.621094 46.972656 81.460938 46.890625 C 81.296875 46.804688 81.128906 46.738281 80.949219 46.695312 C 80.773438 46.652344 80.59375 46.632812 80.410156 46.632812 L 65.769531 46.632812 C 65.511719 46.632812 65.261719 46.675781 65.015625 46.761719 C 64.773438 46.847656 64.550781 46.972656 64.351562 47.132812 C 64.148438 47.296875 63.980469 47.488281 63.847656 47.707031 C 63.710938 47.925781 63.617188 48.164062 63.5625 48.417969 L 57.238281 78.191406 C 57.203125 78.355469 57.1875 78.523438 57.191406 78.6875 C 57.191406 78.855469 57.210938 79.023438 57.25 79.183594 C 57.289062 79.347656 57.347656 79.503906 57.421875 79.65625 C 57.496094 79.804688 57.585938 79.945312 57.6875 80.078125 C 57.792969 80.207031 57.914062 80.324219 58.042969 80.429688 C 58.175781 80.53125 58.316406 80.621094 58.46875 80.691406 C 58.617188 80.765625 58.777344 80.820312 58.941406 80.855469 C 59.101562 80.894531 59.269531 80.914062 59.4375 80.914062 L 68.996094 80.914062 C 69.332031 80.914062 69.652344 80.984375 69.957031 81.128906 C 70.261719 81.273438 70.519531 81.472656 70.734375 81.734375 C 70.949219 81.992188 71.097656 82.285156 71.179688 82.609375 C 71.265625 82.9375 71.273438 83.265625 71.210938 83.59375 L 68.839844 95.867188 C 68.410156 98.109375 71.445312 99.238281 72.578125 97.257812 L 87.644531 71.007812 C 87.742188 70.835938 87.816406 70.65625 87.867188 70.464844 C 87.917969 70.273438 87.945312 70.078125 87.941406 69.882812 C 87.941406 69.683594 87.917969 69.492188 87.867188 69.300781 C 87.8125 69.109375 87.738281 68.929688 87.640625 68.757812 C 87.539062 68.585938 87.421875 68.429688 87.28125 68.292969 C 87.140625 68.152344 86.984375 68.03125 86.816406 67.933594 C 86.644531 67.835938 86.460938 67.761719 86.273438 67.710938 C 86.082031 67.65625 85.886719 67.632812 85.6875 67.632812 L 78.964844 67.632812 C 78.785156 67.632812 78.605469 67.609375 78.425781 67.566406 C 78.25 67.523438 78.078125 67.460938 77.917969 67.375 C 77.757812 67.289062 77.605469 67.1875 77.46875 67.066406 C 77.332031 66.945312 77.214844 66.808594 77.109375 66.65625 C 77.007812 66.507812 76.921875 66.347656 76.855469 66.175781 C 76.792969 66.003906 76.75 65.828125 76.726562 65.648438 C 76.707031 65.46875 76.707031 65.285156 76.726562 65.105469 C 76.75 64.921875 76.792969 64.746094 76.859375 64.578125 Z M 82.515625 49.6875 " fill-opacity="1" fill-rule="nonzero"/><path fill="#000000" d="M 103.828125 103.609375 C 105.34375 102.058594 106.742188 100.40625 108.023438 98.65625 C 109.304688 96.90625 110.453125 95.070312 111.472656 93.15625 C 112.488281 91.238281 113.367188 89.261719 114.101562 87.21875 C 114.835938 85.175781 115.417969 83.09375 115.855469 80.96875 C 116.289062 78.84375 116.570312 76.699219 116.699219 74.53125 C 116.828125 72.367188 116.800781 70.203125 116.617188 68.039062 C 116.4375 65.878906 116.101562 63.742188 115.609375 61.628906 C 115.121094 59.511719 114.484375 57.445312 113.699219 55.421875 C 104.632812 32.125 78.300781 20.542969 55 29.609375 L 56.40625 33.222656 C 77.722656 24.933594 101.796875 35.519531 110.089844 56.828125 C 110.808594 58.679688 111.390625 60.570312 111.835938 62.503906 C 112.285156 64.4375 112.589844 66.394531 112.757812 68.371094 C 112.921875 70.347656 112.949219 72.328125 112.832031 74.308594 C 112.710938 76.292969 112.453125 78.253906 112.054688 80.199219 C 111.65625 82.140625 111.121094 84.046875 110.449219 85.914062 C 109.777344 87.78125 108.972656 89.59375 108.042969 91.34375 C 107.109375 93.097656 106.058594 94.773438 104.886719 96.375 C 103.714844 97.976562 102.433594 99.484375 101.042969 100.902344 L 98.289062 98.21875 C 97.992188 97.929688 97.640625 97.746094 97.230469 97.671875 C 96.824219 97.59375 96.429688 97.640625 96.050781 97.800781 C 95.667969 97.964844 95.367188 98.222656 95.140625 98.570312 C 94.914062 98.917969 94.804688 99.296875 94.808594 99.710938 L 94.914062 107.011719 C 94.917969 107.28125 94.972656 107.542969 95.082031 107.789062 C 95.1875 108.039062 95.339844 108.257812 95.53125 108.445312 C 95.726562 108.636719 95.949219 108.78125 96.203125 108.882812 C 96.453125 108.980469 96.714844 109.03125 96.984375 109.027344 L 104.28125 108.941406 C 104.695312 108.9375 105.074219 108.816406 105.417969 108.582031 C 105.757812 108.347656 106.003906 108.039062 106.160156 107.652344 C 106.3125 107.269531 106.347656 106.875 106.261719 106.46875 C 106.175781 106.0625 105.984375 105.714844 105.6875 105.425781 Z M 103.828125 103.609375 " fill-opacity="1" fill-rule="nonzero"/><path fill="#000000" d="M 55.957031 109.382812 C 55.195312 109.046875 54.441406 108.6875 53.699219 108.308594 C 52.953125 107.925781 52.222656 107.523438 51.507812 107.097656 C 50.789062 106.675781 50.082031 106.226562 49.390625 105.757812 C 48.699219 105.292969 48.023438 104.804688 47.363281 104.296875 C 46.699219 103.785156 46.054688 103.257812 45.425781 102.710938 C 44.792969 102.164062 44.183594 101.597656 43.585938 101.011719 C 42.992188 100.425781 42.414062 99.824219 41.855469 99.207031 C 41.292969 98.585938 40.753906 97.949219 40.234375 97.296875 C 39.710938 96.644531 39.210938 95.976562 38.730469 95.296875 C 38.25 94.613281 37.792969 93.917969 37.351562 93.207031 C 36.914062 92.496094 36.496094 91.773438 36.101562 91.039062 C 35.707031 90.300781 35.335938 89.554688 34.988281 88.796875 C 34.636719 88.039062 34.308594 87.273438 34.007812 86.496094 C 33.703125 85.714844 33.425781 84.929688 33.167969 84.136719 C 32.914062 83.339844 32.679688 82.539062 32.472656 81.730469 C 32.265625 80.921875 32.082031 80.109375 31.925781 79.289062 C 31.769531 78.46875 31.632812 77.644531 31.527344 76.816406 C 31.417969 75.992188 31.335938 75.160156 31.277344 74.328125 C 31.21875 73.496094 31.183594 72.660156 31.175781 71.828125 C 31.167969 70.992188 31.1875 70.15625 31.230469 69.324219 C 31.273438 68.492188 31.339844 67.660156 31.433594 66.828125 C 31.527344 66 31.644531 65.175781 31.785156 64.351562 C 31.929688 63.53125 32.097656 62.710938 32.289062 61.898438 C 32.480469 61.085938 32.695312 60.28125 32.9375 59.484375 C 33.179688 58.683594 33.445312 57.890625 33.730469 57.109375 C 34.019531 56.324219 34.332031 55.550781 34.667969 54.789062 C 35.003906 54.023438 35.363281 53.269531 35.742188 52.527344 C 36.125 51.785156 36.527344 51.054688 36.953125 50.335938 C 37.378906 49.617188 37.824219 48.914062 38.292969 48.222656 C 38.757812 47.53125 39.246094 46.851562 39.753906 46.191406 C 40.265625 45.527344 40.792969 44.882812 41.339844 44.253906 C 41.886719 43.625 42.453125 43.011719 43.039062 42.414062 L 45.480469 44.785156 C 45.777344 45.074219 46.128906 45.253906 46.535156 45.332031 C 46.945312 45.40625 47.335938 45.363281 47.71875 45.199219 C 48.097656 45.035156 48.402344 44.78125 48.628906 44.433594 C 48.855469 44.085938 48.964844 43.703125 48.957031 43.289062 L 48.855469 35.992188 C 48.851562 35.71875 48.796875 35.460938 48.6875 35.210938 C 48.582031 34.960938 48.429688 34.742188 48.238281 34.554688 C 48.042969 34.363281 47.820312 34.21875 47.566406 34.117188 C 47.316406 34.019531 47.054688 33.96875 46.78125 33.972656 L 39.484375 34.058594 C 39.066406 34.0625 38.6875 34.179688 38.339844 34.414062 C 37.996094 34.648438 37.746094 34.960938 37.589844 35.347656 C 37.433594 35.734375 37.402344 36.132812 37.488281 36.542969 C 37.578125 36.949219 37.773438 37.296875 38.074219 37.585938 L 40.257812 39.710938 C 39.355469 40.628906 38.496094 41.582031 37.675781 42.574219 C 36.859375 43.5625 36.082031 44.585938 35.351562 45.640625 C 34.617188 46.695312 33.933594 47.78125 33.292969 48.894531 C 32.652344 50.011719 32.0625 51.148438 31.519531 52.3125 C 30.976562 53.476562 30.484375 54.664062 30.039062 55.871094 C 29.597656 57.074219 29.207031 58.300781 28.871094 59.539062 C 28.53125 60.777344 28.246094 62.03125 28.015625 63.292969 C 27.785156 64.558594 27.605469 65.828125 27.480469 67.105469 C 27.359375 68.386719 27.289062 69.667969 27.273438 70.953125 C 27.257812 72.238281 27.300781 73.519531 27.394531 74.800781 C 27.488281 76.082031 27.636719 77.355469 27.839844 78.625 C 28.042969 79.894531 28.296875 81.152344 28.609375 82.398438 C 28.917969 83.644531 29.28125 84.878906 29.695312 86.09375 C 30.109375 87.308594 30.574219 88.507812 31.089844 89.683594 C 31.605469 90.859375 32.171875 92.011719 32.785156 93.140625 C 33.398438 94.269531 34.058594 95.371094 34.769531 96.441406 C 35.476562 97.515625 36.226562 98.554688 37.023438 99.5625 C 37.820312 100.570312 38.65625 101.542969 39.535156 102.480469 C 40.414062 103.417969 41.332031 104.316406 42.285156 105.175781 C 43.242188 106.035156 44.230469 106.851562 45.257812 107.628906 C 46.28125 108.402344 47.335938 109.132812 48.421875 109.816406 C 49.511719 110.503906 50.625 111.140625 51.765625 111.730469 C 52.90625 112.324219 54.070312 112.863281 55.257812 113.355469 C 56.445312 113.847656 57.648438 114.289062 58.875 114.675781 C 60.097656 115.066406 61.335938 115.402344 62.589844 115.6875 C 63.84375 115.96875 65.105469 116.199219 66.378906 116.375 C 67.652344 116.554688 68.929688 116.675781 70.210938 116.742188 C 71.496094 116.8125 72.777344 116.824219 74.0625 116.78125 C 75.347656 116.742188 76.628906 116.644531 77.902344 116.496094 C 79.179688 116.34375 80.445312 116.140625 81.703125 115.882812 C 82.964844 115.625 84.207031 115.316406 85.441406 114.949219 C 86.671875 114.585938 87.886719 114.171875 89.085938 113.703125 L 87.679688 110.09375 C 85.144531 111.085938 82.535156 111.820312 79.855469 112.292969 C 77.171875 112.769531 74.472656 112.976562 71.75 112.914062 C 69.027344 112.855469 66.335938 112.527344 63.679688 111.933594 C 61.019531 111.335938 58.445312 110.488281 55.957031 109.382812 Z M 55.957031 109.382812 " fill-opacity="1" fill-rule="nonzero"/></svg>