<svg xmlns="http://www.w3.org/2000/svg" xmlns:xlink="http://www.w3.org/1999/xlink" width="192" zoomAndPan="magnify" viewBox="0 0 144 143.999998" height="192" preserveAspectRatio="xMidYMid meet" version="1.0"><defs><clipPath id="4b9ae16f31"><path d="M 22.5 0 L 121.5 0 C 133.925781 0 144 10.074219 144 22.5 L 144 121.5 C 144 133.925781 133.925781 144 121.5 144 L 22.5 144 C 10.074219 144 0 133.925781 0 121.5 L 0 22.5 C 0 10.074219 10.074219 0 22.5 0 Z M 22.5 0 " clip-rule="nonzero"/></clipPath><clipPath id="8cce3fa69f"><path d="M 22.425781 36 L 66 36 L 66 66 L 22.425781 66 Z M 22.425781 36 " clip-rule="nonzero"/></clipPath><clipPath id="a49a92c79a"><path d="M 31 45 L 121.425781 45 L 121.425781 116 L 31 116 Z M 31 45 " clip-rule="nonzero"/></clipPath></defs><g clip-path="url(#4b9ae16f31)"><rect x="-14.4" width="172.8" fill="#be80ff" y="-14.4" height="172.799997" fill-opacity="1"/></g><g clip-path="url(#8cce3fa69f)"><path fill="#000000" d="M 35.765625 65.042969 C 39.789062 64.539062 42.921875 61.949219 44.546875 60.324219 C 45.394531 62.449219 47.523438 65.621094 52.472656 65.621094 C 52.742188 65.621094 52.976562 65.621094 53.246094 65.582031 C 55.992188 65.390625 57.382812 63.496094 58.542969 61.949219 C 59.394531 60.824219 60.128906 59.820312 61.175781 59.703125 C 61.949219 59.628906 62.527344 59.742188 62.875 60.128906 C 63.609375 60.863281 63.609375 62.410156 63.53125 62.953125 C 63.457031 63.496094 63.84375 63.996094 64.382812 64.035156 C 64.925781 64.113281 65.429688 63.726562 65.464844 63.183594 C 65.503906 62.875 65.777344 60.285156 64.269531 58.738281 C 63.726562 58.15625 62.683594 57.539062 60.941406 57.730469 C 59.046875 57.964844 58.003906 59.355469 56.996094 60.75 C 55.953125 62.140625 54.988281 63.457031 53.167969 63.570312 C 46.902344 63.957031 46.015625 58.390625 45.976562 58.15625 C 45.9375 57.769531 45.628906 57.460938 45.242188 57.347656 C 44.855469 57.230469 44.46875 57.382812 44.195312 57.695312 C 44.160156 57.734375 40.5625 62.410156 35.535156 63.03125 C 32.867188 63.378906 30.199219 62.527344 27.683594 60.515625 C 25.558594 58.816406 24.476562 56.148438 24.707031 53.167969 C 24.9375 50.347656 26.371094 47.753906 28.226562 46.75 C 32.324219 44.507812 37.238281 45.976562 37.273438 46.015625 C 37.546875 46.09375 37.855469 46.054688 38.125 45.898438 C 38.359375 45.746094 38.550781 45.472656 38.550781 45.164062 C 38.589844 44.855469 39.363281 38.046875 45.9375 38.511719 C 48.449219 38.707031 50.347656 39.59375 51.582031 41.140625 C 54.058594 44.199219 53.402344 48.953125 53.363281 48.992188 C 53.285156 49.535156 53.671875 50.035156 54.175781 50.113281 C 54.714844 50.191406 55.21875 49.804688 55.296875 49.300781 C 55.335938 49.070312 56.109375 43.695312 53.089844 39.945312 C 51.46875 37.933594 49.109375 36.773438 46.015625 36.539062 C 39.945312 36.113281 37.390625 40.640625 36.695312 43.847656 C 34.800781 43.460938 30.816406 43.039062 27.21875 45.007812 C 24.785156 46.441406 23.003906 49.574219 22.695312 53.09375 C 22.386719 56.726562 23.738281 60.015625 26.40625 62.140625 C 29.386719 64.460938 32.519531 65.464844 35.765625 65.042969 Z M 35.765625 65.042969 " fill-opacity="1" fill-rule="nonzero"/></g><g clip-path="url(#a49a92c79a)"><path fill="#000000" d="M 113.457031 83.527344 L 111.757812 45.394531 L 104.988281 45.394531 L 103.597656 83.527344 L 97.679688 83.527344 L 95.980469 45.394531 L 89.210938 45.394531 L 87.820312 83.527344 L 79.3125 83.527344 L 79.3125 92.074219 L 73.238281 92.074219 C 70.878906 82.945312 69.796875 73.472656 72.003906 68.40625 L 44.390625 68.40625 C 49.535156 80.238281 36.925781 115.738281 31.707031 115.738281 C 60.285156 115.738281 92.847656 115.738281 121.425781 115.738281 L 121.425781 83.527344 Z M 113.457031 83.527344 " fill-opacity="1" fill-rule="nonzero"/></g><path fill="#000000" d="M 66.046875 41.914062 C 68.097656 43.539062 70.222656 44.199219 72.425781 43.925781 C 75.171875 43.578125 77.300781 41.800781 78.421875 40.679688 C 79 42.109375 80.433594 44.3125 83.835938 44.3125 C 84.027344 44.3125 84.183594 44.3125 84.378906 44.3125 C 86.234375 44.199219 87.199219 42.882812 87.972656 41.839844 C 88.554688 41.066406 89.054688 40.40625 89.753906 40.332031 C 90.292969 40.253906 90.679688 40.367188 90.914062 40.640625 C 91.414062 41.140625 91.414062 42.1875 91.375 42.574219 C 91.339844 42.921875 91.570312 43.269531 91.957031 43.308594 C 92.304688 43.347656 92.652344 43.113281 92.691406 42.726562 C 92.730469 42.535156 92.921875 40.753906 91.878906 39.671875 C 91.492188 39.285156 90.796875 38.859375 89.597656 38.976562 C 88.320312 39.132812 87.585938 40.097656 86.890625 41.027344 C 86.195312 41.992188 85.5 42.882812 84.261719 42.960938 C 79.96875 43.230469 79.386719 39.402344 79.351562 39.246094 C 79.3125 38.976562 79.117188 38.746094 78.847656 38.707031 C 78.578125 38.628906 78.304688 38.746094 78.152344 38.9375 C 78.113281 38.976562 75.675781 42.148438 72.234375 42.574219 C 70.417969 42.804688 68.597656 42.226562 66.859375 40.832031 C 65.390625 39.671875 64.65625 37.855469 64.847656 35.84375 C 65.003906 33.988281 65.890625 32.285156 67.128906 31.550781 C 67.128906 31.550781 67.285156 31.398438 67.324219 31.359375 C 69.796875 29.386719 72.039062 29.695312 73.277344 30.585938 C 74.207031 31.28125 74.632812 32.324219 74.285156 33.175781 C 74.167969 33.445312 74.285156 33.71875 74.476562 33.910156 C 74.515625 33.949219 74.59375 33.988281 74.632812 34.027344 C 74.671875 34.027344 74.671875 34.027344 74.710938 34.027344 C 74.746094 34.027344 74.824219 34.066406 74.863281 34.066406 C 74.980469 34.066406 75.058594 34.027344 75.132812 33.988281 C 75.328125 33.949219 75.558594 33.871094 75.871094 33.71875 C 77.648438 32.90625 78.539062 33.484375 79.699219 34.914062 C 79.929688 35.226562 80.160156 35.574219 80.433594 35.960938 C 81.246094 37.234375 82.210938 38.78125 84.453125 38.859375 C 85.691406 38.898438 86.621094 38.046875 87.507812 37.234375 C 88.398438 36.425781 89.25 35.652344 90.253906 35.804688 C 91.261719 35.921875 91.957031 36.308594 92.382812 36.925781 C 93.195312 38.085938 92.769531 39.828125 92.769531 39.867188 C 92.691406 40.214844 92.886719 40.601562 93.234375 40.679688 C 93.273438 40.679688 93.347656 40.714844 93.386719 40.714844 C 93.695312 40.714844 93.96875 40.523438 94.046875 40.214844 C 94.082031 40.136719 94.625 37.894531 93.464844 36.191406 C 92.808594 35.226562 91.800781 34.644531 90.410156 34.492188 C 88.746094 34.257812 87.585938 35.339844 86.582031 36.269531 C 85.847656 36.925781 85.152344 37.585938 84.453125 37.546875 C 82.945312 37.507812 82.289062 36.460938 81.515625 35.265625 C 81.246094 34.878906 81.011719 34.453125 80.703125 34.105469 C 79.503906 32.632812 78.035156 31.433594 75.597656 32.402344 C 75.519531 31.359375 74.941406 30.3125 73.9375 29.578125 C 72.3125 28.417969 69.527344 27.953125 66.472656 30.3125 C 64.808594 31.242188 63.609375 33.367188 63.378906 35.765625 C 63.339844 38.242188 64.269531 40.484375 66.046875 41.914062 Z M 66.046875 41.914062 " fill-opacity="1" fill-rule="nonzero"/></svg>